<?xml version="1.0" encoding="UTF-8"?>
<svg data-bbox="46.261 113.613 967.294 1305.66" height="1470" width="1152" xmlns="http://www.w3.org/2000/svg" data-type="ugc">
    <g>
        <path fill="#171815" d="M72.125 115.5 75 117v2l2.25.875L80 121l2 .813c4.882 2.898 8.165 7.357 11 12.187v3h2l2 6h2a486 486 0 0 1 2.5 4.75l1.406 2.672C104 153 104 153 104 157h2c3.608 6.573 7.143 13.063 10 20a332 332 0 0 0 3.23 6.105C120 185 120 185 120 189h2l1.25 3.563c1.093 2.944 2.339 5.61 3.938 8.312C129 204 129 204 129 206h2v3h2c1.625 1.375 1.625 1.375 3 3v2l4 1v2l1.688.125c3.606 1.365 5.042 3.786 7.312 6.875v2l1.723.27c6.552 2.101 12.273 9.305 16.277 14.73v2h2c2.295 2.178 4.473 4.432 6.625 6.75 1.471 1.507 1.471 1.507 4.375 2.25 3 3.444 3 3.444 3 6h2a83 83 0 0 1 5 5l1.414 1.504C203 277.36 203 277.36 203 283l2.992-.035 3.883-.027 3.867-.036C217 283 217 283 219 284v2l4 1v2l1.75.25c2.867.956 4.168 2.6 6.25 4.75l3 1 1 2c2.697 1.56 5.463 2.952 8.238 4.367 2.748 1.625 4.696 3.21 6.762 5.633v2h2c3 3.462 3 3.462 3 6l1.785.762c2.491 1.393 3.838 2.859 5.652 5.05 2.082 2.472 4.16 4.835 6.5 7.063C271 330 271 330 271 332l4 1v2l5 1v2l4 1v2h2l1.938 2.438c1.872 2.8 1.872 2.8 5.062 3.562v2l1.875.75c2.512 1.478 2.886 2.69 4.125 5.25l3 1v2h2c1.29 1.46 1.29 1.46 2.625 3.375l1.352 1.898C309 365 309 365 309 367l1.785.797c5.736 3.116 10.283 9.08 14.215 14.203v2l1.688.688c2.974 1.688 5.032 3.779 7.312 6.312v2h2l.813 2.438L338 398l3 1v2l1.813.875C345 403 345 403 348 405l.7-2.145c1.535-3.37 3.663-5.82 6.113-8.543 4.601-5.261 8.765-10.74 12.812-16.437 8.068-11.32 16.844-21.762 26.375-31.875l2.09-2.219c3.543-3.652 7.25-6.913 11.223-10.094 3.984-3.193 7.617-6.536 11.187-10.187 5.202-5.283 10.607-10.003 16.5-14.5l1.77-1.362c36.543-27.836 82.361-41.322 128.143-35.712 6.602.899 12.956 1.923 19.337 3.887 13.166 3.508 25.426-1.09 37.2-6.72 38.734-18.322 86.777-16.83 126.54-3.111 29.989 10.866 64.351 32.522 82.42 59.55 2.476 3.557 5.488 5.864 9.09 8.218 18.642 12.826 35.827 29.033 48.836 47.574q1.269 1.808 2.539 3.613l1.258 1.798c3.588 5.05 7.579 9.565 11.836 14.058C906 403 906 403 908 406c2.757.442 2.757.442 5.875.313l3.18-.012c2.856-.097 2.856-.097 4.754-1.303 2.84-1.293 5.084-1.257 8.199-1.264l3.488-.007 3.629.023 3.652-.023 3.48.007 3.193.007C950 404 950 404 952 406c1.64.468 3.28.932 4.93 1.363 3.117.959 6.01 2.348 8.957 3.735 2.027.865 3.964 1.431 6.113 1.902v2l1.688.813c4.864 2.498 8.625 5.079 12.312 9.187v2h2c1.727 2.047 1.727 2.047 3.625 4.75l1.914 2.672C995 437 995 437 995 441l3 1v2l4 1v2l1.766.836c3.598 1.875 6.672 3.986 9.234 7.164 1.145 4.05.449 7.122-1.437 10.813-1.583 3.228-1.805 4.98-2 8.5-.317 4.783-1.418 8.191-3.532 12.457-1.065 2.304-1.744 4.531-2.406 6.98-1.162 4.163-2.827 7.819-4.75 11.688-2.5 5.209-3.376 9.332-3.61 15.054-.566 5.348-3.658 10.573-7.265 14.508h-2l-.812 2.438L984 540l-3 1v2l-4 1v2h-2l-1 3c-2.062.688-2.062.688-4 1 .592 4.426 2.281 7.527 4.5 11.375 3.516 6.386 6.47 12.925 9.188 19.688l1.078 2.585c7.627 19.452 8.983 38.681 8.863 59.372q0 3.96.007 7.922.006 8.24-.04 16.48c-.031 6.302-.031 12.602-.014 18.903a3434 3434 0 0 1-.008 18.405q-.008 3.868.002 7.736c.035 23.331.035 23.331-3.155 34.903-1.802 6.579-1.868 12.754-1.671 19.53l.046 3.758c.064 5.213.177 10.424.286 15.636.9 47.245-17.184 90.013-48.082 125.707l-2.102 2.438c-8.367 9.492-17.12 18.615-27.086 26.437l-1.776 1.405c-2.575 1.992-5.003 3.703-7.895 5.22-6.85 3.653-8.51 8.14-10.703 15.25l-1.665 5.61c-4.404 14.655-12.253 28.194-20.906 40.73-1.571 2.45-2.495 4.448-3.43 7.16-1.253 2.506-1.903 3.522-4.503 4.633-2.982.573-5.906.869-8.934 1.117q-3.456.33-6.91.692-2.357.241-4.72.436c-4.758.45-8.126 1.516-12.37 3.872h-2v2a90 90 0 0 1-4 4l-1.937 2c-2.239 2.17-4.63 4.053-7.063 6l-1.863 1.969c-2.2 2.091-4.11 3.201-6.824 4.531-5.364 2.823-10.256 6.122-15.188 9.625l-2.198 1.56c-2.91 2.085-5.77 4.189-8.56 6.432-2.686 2.137-5.508 3.985-8.367 5.883a593 593 0 0 0-5.562 4.25c-14.533 10.895-28.671 17.004-46.438 20.75-1.335.326-2.67.656-4 1v2l-2.668 1.426-3.52 1.887-3.48 1.863a135 135 0 0 0-6.133 3.554C696 1109 696 1109 694 1109l-.7 1.754c-1.627 2.81-3.529 4.227-6.112 6.184-5.941 4.628-10.541 9.329-14.856 15.488L671 1134h-2v2h-2l-.227 1.868c-.773 2.132-.773 2.132-2.675 3.305l-2.465.932c-.886.344-1.771.688-2.684 1.041l-2.824 1.042-2.8 1.076c-3.424 1.309-6.848 2.577-10.325 3.736a1217 1217 0 0 0-.062 6.313l-.036 3.55c-.051 3.168-.051 3.168 1.098 6.137.793 5.966.037 10.422-2.5 15.875-2.405 5.287-2.758 9.066-2.48 14.8-.028 4.756-.976 9.233-1.884 13.886-.889 4.68-1.396 9.233-1.636 14.002-.26 4.655-.865 8.332-2.75 12.582-.85 2.103-1.264 4.128-1.687 6.355-1.168 5.654-3.772 10.316-6.688 15.25-1.306 3.087-1.817 5.522-2.312 8.813-2.498 16.457-2.498 16.457-7.672 22.468-3.882 5.217-3 11.44-2.828 17.657l.061 3.895c.16 7.568.469 15.125 1.126 22.667l.186 2.32c.599 5.574 2.232 10.568 5.064 15.43 2.705 2.111 4.76 2.92 8 4v2l4 1v2l7 1-2-3v-3c3.85.604 6.861 1.768 10.313 3.563l2.675 1.378L650 1361v1q-2.187.039-4.375.063l-2.46.035C641 1362 641 1362 639 1361v2h2c1.625 1.375 1.625 1.375 3 3v2l7 1v2l5 1v2l5 1v2c.704.095 1.408.19 2.133.29 3.38.837 5.78 2.261 8.742 4.085 7.692 4.72 14.5 7.142 23.34 8.266 5.084.797 7.622 2.311 10.785 6.359.801 5.41-.508 9.2-3 14-3.664 4.338-8.972 5.635-14.464 6.297a176 176 0 0 1-7.411.265q-2.496.052-4.992.13l-2.191.037c-2.265.173-2.265.173-4.942 2.271-1.974.259-1.974.259-4.203.266l-2.473.007-2.574-.023-2.527.023c-5.115-.016-9.305-.745-14.223-2.273a105 105 0 0 0-6.062-.5c-4.337-.301-7.834-1.041-11.938-2.5-1.475-.197-2.956-.36-4.437-.5-4.044-.385-7.668-1.317-11.563-2.5-7.282-2.038-14.405-2.42-21.937-2.625l-3.597-.124c-5.322-.169-10.627-.284-15.95-.169l-2.442.047q-2.172.055-4.341.171c-6.042.17-10.95-1.871-15.464-5.811C544 1401 544 1401 544 1399h-2c-7.1-9.762-6.802-24.527-5.648-36.082.986-4.44 2.962-8.18 5.175-12.129 2.901-5.494 3.746-10.291 4.035-16.476.34-7.021.34-7.021 1.438-10.313.1-1.43.148-2.866.161-4.3l.03-2.62.012-2.822.017-2.91q.014-3.05.02-6.098c.01-3.106.041-6.211.072-9.316q.01-2.963.016-5.926l.038-2.81c-.018-4.985-.302-8.057-3.366-12.198v-2l-1.937-.312c-4.128-.927-8.07-2.305-12.063-3.688v-2l-2.375.125C525 1267 525 1267 523 1265c-2.806-1.238-5.668-2.234-8.562-3.25-3.607-1.325-6.916-3.02-10.313-4.812-4.622-2.364-8.707-3.688-13.805-4.524-4.748-.847-8.935-2.115-12.523-5.48-2.43-3.969-2.324-7-2.172-11.559l.041-2.432c.14-5.251.695-10.262 1.826-15.4.755-3.782.995-7.583 1.262-11.426C479 1204 479 1204 480 1203c.206-1.328.366-2.663.5-4 .389-3.889.389-3.889 1.5-5 .798-3.482 1.484-6.982 2.184-10.484.704-3.032 1.633-5.653 2.816-8.516l.438-3.25c.558-3.726 1.568-6.894 2.808-10.43.736-2.264 1.271-4.49 1.754-6.82.651-3.141 1.5-6.098 2.563-9.125 1.329-3.808 1.938-7.382 2.437-11.375l1-1c.702-2.294.702-2.294 0-5-2.197-2.272-4.773-3.97-7.375-5.75a1080 1080 0 0 1-4.43-3.184l-2.186-1.573c-3.502-2.602-6.673-5.527-9.86-8.497-1.96-1.82-3.972-3.533-6.024-5.246-9.95-8.706-18.41-19.056-26.125-29.75l-1.209-1.66c-14.174-19.674-24.84-42.066-30.967-65.52-.725-2.48-1.578-4.567-2.824-6.82h-2c-3-3.462-3-3.462-3-6h-2c-1.402-1.61-1.402-1.61-2.937-3.75l-1.528-2.11L394 986l-1.691-2.14C391 982 391 982 391 980h-2c-1.29-1.46-1.29-1.46-2.625-3.375l-1.352-1.898C384 973 384 973 384 971h-2c-2.256-2.448-4.08-5.285-6-8l-2.254-3.145q-1.187-1.676-2.371-3.355l-2.227-3.156c-1.965-3.06-3.552-6.096-5.134-9.357-1.614-3.163-3.573-6.08-5.514-9.05-8.297-12.998-15.818-26.865-21.422-41.25-1.272-3.17-2.732-6.228-4.203-9.312-2.13-4.553-3.718-8.954-5.031-13.793-1.02-3.118-2.404-5.948-3.844-8.894-2.567-5.386-3.983-10.432-5.156-16.258-.95-3.86-2.354-7.445-3.844-11.117-2.622-6.555-3.956-12.893-4.955-19.865-.812-5.522-2.242-10.537-4.13-15.8-2.604-7.541-3.148-15.11-3.634-23.027-.517-9.582-.517-9.582-3.281-18.621-3.085-18.457-3.486-37.146-3.391-55.808.017-3.383.007-6.765-.01-10.148-.195-45.256-.195-45.256 4.401-59.044q.295-2.745.5-5.5c.234-3.106.51-5.532 1.5-8.5.102-1.853.182-3.708.25-5.562.464-6.253 2.246-11.231 5.75-16.438l2-1c-2.011-5.258-4.007-10.21-7-15v-2h-2c-1.656-1.61-1.656-1.61-3.5-3.75l-1.844-2.11c-1.536-1.985-2.628-3.859-3.656-6.14h-2v-2l-1.812-.875C286 562 286 562 283 560v-2l-3-1v-2l-1.812-.812c-2.199-1.194-3.435-2.435-5.188-4.188l-2.5-1.437c-2.584-1.616-3.918-2.982-5.5-5.563v-2h-2a1638 1638 0 0 1-2.5-5.875l-1.406-3.305C258 529 258 529 258 527l-2.937-.312c-9.376-2.741-15.098-15.657-19.532-23.72C234 500 234 500 233 497h-2c-4-5.412-4-5.412-4-8h-2c-1.29-1.46-1.29-1.46-2.625-3.375l-1.352-1.898C220 482 220 482 220 480h-2a138 138 0 0 1-5-7.187l-1.367-2.042c-2.3-3.487-4.272-6.79-5.633-10.771h-2v-3h-2q-1.472-2.654-2.937-5.312l-1.653-2.989C196 446 196 446 195 443h-2v-3h-2a805 805 0 0 1-2.5-4.375l-1.406-2.46C186 431 186 431 186 429h-2v-3h-2q-1.472-2.904-2.937-5.812l-1.653-3.27C176 414 176 414 175 411h-2c-5-5.476-5-5.476-5-8h-2v-3h-2c-2.079-3.118-2.481-4.867-3.062-8.5-.485-2.977-.982-5.633-1.938-8.5l-1.75-.875c-3.304-1.652-5.001-3.147-7.25-6.125-.884-3.673-.99-7.233-1-11l-.07-2.668c.201-7.584 3.528-17.79 9.07-23.332.608-4.731.5-8.117-1.875-12.312L154 324l-1-2.25c-.884-1.923-.884-1.923-3-2.75-2.528-1.264-2.764-2.528-4-5l-1.848-.898c-2.459-1.259-3.753-2.674-5.59-4.727-4.457-4.635-9.46-7.55-15-10.71L121 296v-2l-2.062-.312c-3.608-.845-8.27-2.02-10.938-4.688a96 96 0 0 0-4.062-.875c-5.783-1.248-10.956-2.775-15.876-6.125-3.205-2.094-6.047-3.091-9.671-4.207-3.925-1.302-7.646-3.049-11.391-4.793v-2h-2c-5.273-5.712-7.394-11.881-7.187-19.578.463-5.983 1.546-11.357 4.25-16.734C66.078 226.19 65.64 216.81 63 208l-.887-3.312c-2.156-7.91-4.759-15.454-8.12-22.927-1.111-3.09-1.486-5.855-1.81-9.12l-.376-3.63-.37-3.761q-.37-3.711-.753-7.422l-.327-3.315c-.091-2.447-.091-2.447-1.357-3.513-.21-1.975-.368-3.956-.5-5.937-.177-4.185-.177-4.185-1.5-8.063-1.21-13.486-1.21-13.486 2.125-17.687 7.024-5.65 14.473-7.445 23-3.813"/>
        <path fill="#94EEEF" d="M805 300c20.47 18.14 20.47 18.14 25.41 25.531 2.476 3.558 5.488 5.865 9.09 8.219 18.642 12.826 35.827 29.033 48.836 47.574q1.269 1.808 2.539 3.613l1.262 1.802c3.538 4.975 7.438 9.42 11.636 13.859 2.206 2.38 4.23 4.845 6.227 7.402-1.085.182-2.17.364-3.29.55l-4.335.762-2.16.358c-4.542.812-8.11 2.13-12.215 4.33h-2v3h2l-1 6h3v7h7l-2.625 3.938-1.656 2.484-4.844 7.265-1.488 2.27C885 448 885 448 882.687 450.875c-1.74 3.222-1.964 4.86-2.187 8.438-.406 6.354-1.544 12.017-6.437 16.437a77 77 0 0 1-4.16 2.863c-7.487 5.457-8.42 15.402-9.793 23.898l-.61 3.926q-.322 2.015-.647 4.028-.638 3.957-1.269 7.914a827 827 0 0 1-2.396 13.996l-.375 2.103q-.405 2.262-.813 4.522c-3.038.718-5.874 1.161-9 1-2.49-1.866-3.963-3.28-5.875-5.625-5.074-5.641-10.415-9.956-16.75-14.125-5.272-3.475-10.376-6.906-15.187-11-7.874-6.615-16.542-13.863-27.102-14.836-2.64-.524-3.961-1.785-6.086-3.414-6.62-2.764-13.384-4.38-20.445-5.5-2.384-.467-4.374-1.155-6.617-2.062-4.549-1.658-8.906-1.682-13.688-1.813-7.117-.212-12.724-1.423-19.258-4.469-6.934-2.68-12.931-2.179-20.054-.844l-2.315.397c-4.643.822-9.089 1.986-13.623 3.291-2.624.53-5.24 1.034-7.875 1.5-4.384.79-8.738 1.612-13.062 2.688-4.419.993-8.553 1.13-13.063.812l-2.66-.137c-5.62-.608-8.652-1.78-12.59-5.863-5.843-5.872-12.96-8.473-20.552-11.549-7.778-3.155-13.348-6.3-19.198-12.451-4.624-4.706-9.454-9.174-14.297-13.652-3.179-2.952-6.305-5.934-9.351-9.024-2.728-2.749-5.56-5.233-8.602-7.637-4.896-3.942-9.556-8.083-14.184-12.335a397 397 0 0 0-6.816-6.102l-1.918-1.684q-1.784-1.527-3.633-2.976c-5.185-4.128-8.544-9.107-12.199-14.59-1.104-1.324-1.104-1.324-3.875-1.187-3.29-.066-3.29-.066-6.125 2.187-2.5.438-2.5.438-5 0-1.625-2.187-1.625-2.187-3-5l-1.687-2.687C497 378 497 378 497 376h-2c.73-15.486.73-15.486 2.063-21.25 1.195-5.427 2.086-11.272.937-16.75l-2.371-1.828c-3.655-3.02-4.086-6.052-5.129-10.547-1.432-6.11-2.913-10.191-7.5-14.625-3.504-.416-5.821-.59-9 1-1.477.095-2.958.13-4.437.125l-2.372.008C465 312 465 312 462 311c-5.333-.624-5.333-.624-9.918 1.477-2.58 1.887-4.299 1.91-7.457 2.148-3.41.532-5.111.86-7.57 3.324A69 69 0 0 0 433 325c-1.932 3.444-3.97 6.033-6.687 8.875-2.683 2.989-3.275 3.862-3.875 8 .271 3.215.271 3.215 2.562 5.125 2.323.4 4.657.74 7 1l.227 1.766c1.526 9.516 5.008 18.943 12.867 24.953 2.035 1.42 2.035 1.42 4.918 2.84 4.17 3.407 4.933 6.925 6.3 12.003l.76 2.616a376 376 0 0 1 1.359 4.8A111 111 0 0 0 460 402c.344 2.637.344 2.637.5 5.688l.219 3.011c-.924 4.24-2.91 6.09-5.834 9.196-2.984 3.332-5.153 7.094-7.447 10.918C433.48 453.519 433.48 453.519 426 461c-.572 4.077-.85 6.6 1.316 10.168 3.77 4.494 7.567 7.084 12.684 9.832 2.81 2.536 5.108 5.139 7.438 8.125 3.54 4.208 7.844 7.358 12.185 10.686 3.598 2.767 7.04 5.605 10.377 8.689 13.753 12.586 29.005 22.74 45.185 31.907 7.06 4.05 13.842 8.476 20.628 12.968 8.313 5.495 16.675 10.857 25.25 15.938l2.645 1.577A134 134 0 0 0 580 579c-4.955 1.652-9.943 1.152-15 0-2.437-2.812-2.437-2.812-4-6-3.658-3.346-7.695-5.545-12.125-7.687l-2.102-1.036c-4.55-2.23-9.132-4.392-13.72-6.542-40.15-18.833-40.15-18.833-55.053-33.735l-2.812-1.75c-2.96-2.09-4.85-4.024-7.188-6.75-4.48-5.156-8.162-8.11-14.875-9.625-6.628-1.843-9.3-6.47-13.125-11.875-7.669-9.765-15.655-18.073-25.34-25.84a169 169 0 0 1-6.723-5.785c-3.537-3.122-7.266-5.828-11.167-8.477a219 219 0 0 1-5.946-4.234c-5.723-4.183-10.79-7.266-17.746-9.027-3.508-1.075-4.918-2.697-7.078-5.637-1.474-2.886-2.865-5.805-4.258-8.73-2.414-4.53-5.43-8.452-8.594-12.48-2.2-2.857-4.18-5.771-6.148-8.79a347 347 0 0 1 13.875-18.312c3.876-4.78 7.555-9.631 11.063-14.688a194.6 194.6 0 0 1 38.347-40.723c2.917-2.446 5.554-5.055 8.215-7.777 5.202-5.283 10.607-10.003 16.5-14.5l1.77-1.362c36.543-27.836 82.361-41.322 128.143-35.712 6.602.899 12.956 1.923 19.337 3.887 13.166 3.508 25.426-1.09 37.2-6.72C681.381 240.746 756.5 257.67 805 300"/>
        <path fill="#94EEEF" d="M969 551c5.287 9.044 9.642 18.405 13.688 28.063l1.366 3.16c8.159 19.89 9.698 39.489 9.575 60.797q0 3.96.007 7.922.006 8.24-.04 16.48c-.031 6.302-.031 12.602-.014 18.903a3434 3434 0 0 1-.008 18.405q-.008 3.868.002 7.736c.035 23.331.035 23.331-3.155 34.903-1.802 6.579-1.868 12.754-1.671 19.53l.046 3.758c.064 5.213.177 10.424.286 15.636.9 47.245-17.184 90.013-48.082 125.707l-2.102 2.438c-8.367 9.492-17.12 18.615-27.086 26.437l-1.776 1.405c-2.575 1.992-5.003 3.703-7.895 5.22-6.85 3.653-8.51 8.14-10.703 15.25l-1.665 5.61c-4.404 14.655-12.253 28.194-20.906 40.73-1.571 2.45-2.495 4.448-3.43 7.16-1.253 2.506-1.903 3.522-4.503 4.633-2.982.573-5.906.869-8.934 1.117q-3.456.33-6.91.692-2.357.241-4.72.436c-4.758.45-8.126 1.516-12.37 3.872h-2v2a90 90 0 0 1-4 4l-1.937 2c-2.239 2.17-4.63 4.053-7.063 6l-1.863 1.969c-2.2 2.091-4.11 3.201-6.824 4.531-5.364 2.823-10.256 6.122-15.188 9.625l-2.198 1.56c-2.91 2.085-5.77 4.189-8.56 6.432-2.686 2.137-5.508 3.985-8.367 5.883a593 593 0 0 0-5.562 4.25c-14.533 10.895-28.671 17.004-46.438 20.75-1.335.326-2.67.656-4 1v2l-2.668 1.426-3.52 1.887-3.48 1.863a135 135 0 0 0-6.133 3.554C696 1109 696 1109 694 1109c-.23.579-.461 1.158-.7 1.754-1.627 2.81-3.529 4.227-6.112 6.184-5.941 4.628-10.541 9.329-14.856 15.488L671 1134h-2v2h-2l-.23 1.868c-.77 2.132-.77 2.132-2.656 3.305l-2.446.932-2.67 1.041-2.81 1.042-2.776 1.076c-3.775 1.449-7.467 2.826-11.412 3.736.582-10.37 2.52-19.157 7.125-28.5 2.506-5.191 3.502-9.409 3.734-15.137.18-3.013 1.114-5.538 2.141-8.363 1.159-5.679.975-11.155.742-16.914.295-3.523 1.368-5.151 3.258-8.086.873-3.453 1.134-6.7 1.161-10.254l.029-3.133.013-3.39.02-3.573c.018-3.862.024-7.725.027-11.588l.007-3.982c.025-22.545-1.034-44.914-2.794-67.39-1.194-15.811-1.194-15.811.537-22.69.09-1.566.13-3.135.133-4.703l.004-2.723-.012-2.824.012-2.777c-.006-4.147-.1-8.164-.707-12.27-.423-3.64-.034-6.126.57-9.703.083-2.092.118-4.187.114-6.28v-3.7l-.016-3.95-.005-4.077q-.006-5.34-.024-10.682-.014-5.46-.02-10.92-.016-10.695-.049-21.391c2.697 2.61 4.484 4.448 5.633 8.047l.754 2.312.738 2.391.762 2.344c1.179 3.68 2.244 7.353 3.133 11.113 3.032 11.73 9.606 20.168 19.293 27.23 6.236 5.947 6.96 13.52 7.421 21.758.305 3.216 1.112 5.717 2.375 8.664 1.547 3.718 2.69 7.577 3.926 11.407.87 2.683.87 2.683 2.086 4.843C705 952 705 952 705 956h2l4 7c9.25 1.076 17.975-3.885 26-8-.139-1.93-.139-1.93-1-4-2.367-1.517-4.817-2.656-7.36-3.852-7.294-5.935-9.017-16.366-11.14-25.086-2.75-11.258-6.383-21.273-12.75-31l-1.151-1.761c-3.318-5.016-6.884-9.82-10.556-14.582C687 866.677 687 866.677 687 864h-2l-.75-1.937c-.698-1.71-1.415-3.413-2.203-5.083-3.804-8.103-5.16-15.076-5.047-23.98l1.772-.335q3.99-.764 7.978-1.54l2.79-.527 2.694-.528 2.476-.476c2.312-.6 4.178-1.496 6.29-2.594 4.64-.616 7.86-.07 12 2 9.845 1.382 16.953-4.695 24.92-9.746 14.595-9.24 29.743-14.865 46.496-18.867 3.665-.88 7.22-1.877 10.771-3.137 3.061-1.059 5.545-1.81 8.813-1.25l1.75 1.438c2.94 2.04 5.302 2.033 8.813 2.316 3.14.317 6.134 1.007 9.199 1.746 2.73.61 5.476 1.057 8.238 1.5l-.105 3.691-.082 4.871-.077 2.424c-.082 6.761.946 11.58 5.764 16.639 3.365 3.747 3.783 8.298 4.75 13.105 1.29 5.624 3.561 10.487 6.75 15.27l3 1c1.43 2.145 1.43 2.145 2.875 4.813 4.355 7.474 8.942 10.016 17.125 12.187 3.27.778 3.27.778 7 1l2.984.336c11.9.78 21.231-4.014 30.606-10.945 3.023-2.212 6.013-3.634 9.535-4.953 8.111-3.045 12.99-7.764 16.875-15.438a139 139 0 0 0 2.848-10.863c1.38-3.758 2.975-4.803 6.152-7.137 1.734-2.372 1.734-2.372 3.125-4.937l1.445-2.528L954 819c2.37-4.071 4.837-7.513 8-11h2a487 487 0 0 0 .96-34.113 1769 1769 0 0 0-.174-17.876l-.044-5.609-.056-2.602c-.022-5.158.818-8.19 3.314-12.8 1.38-9.214-.794-16.868-4.437-25.25l-1.367-3.268c-5.018-11.793-10.673-23.11-17.989-33.65-2.843-4.316-4.25-8.96-5.582-13.894-1.366-4.762-3.278-7.334-6.625-10.938-2.125-3.391-2.472-6.545-2.812-10.5l-.333-3.406c.161-3.447.697-4.71 3.145-7.094h2l-.48-1.675c-.57-2.546-.73-4.922-.836-7.528l-.127-2.969-.12-3.078-.13-3.125q-.159-3.812-.307-7.625h-5c-3.497-10.492-3.497-10.492-2-15 2.355-2.857 4.876-5.314 7.617-7.8 2.525-2.158 2.525-2.158 4.383-5.2h2l.738-1.7c2.055-3.747 5.007-6.636 7.903-9.753a112 112 0 0 0 4.156-4.719c3.277-3.776 5.468-5.23 10.515-5.765 2.235-.08 4.453-.063 6.688-.063"/>
        <path fill="#94EEEF" d="M305 582h2c1.262 1.54 1.262 1.54 2.688 3.625 3.546 4.888 7.503 8.742 12.738 11.785 2.717 1.678 4.866 3.538 7.199 5.715 5.288 4.846 10.797 9.37 16.375 13.875 3.885 3.148 7.476 6.448 11 10l2.935 2.92q4.3 4.273 8.593 8.553 1.84 1.833 3.683 3.662C378.7 648.581 385.075 655.024 391 662c5.944 6.53 12.138 11.618 19.48 16.504 4.078 2.804 7.795 5.996 11.52 9.246l1.887 1.646C434.264 698.554 449.217 713.01 453 727c.094 2.103.153 4.208.188 6.313.26 5.335 1.16 7.683 4.812 11.562 6.885 7.476 9.598 16.887 12.986 26.318.92 2.547 1.87 5.08 2.842 7.608 3.84 10.014 3.84 10.014 5.106 14.531a107 107 0 0 0 2.793 8.305c3.218 8.512 5.883 15.583 5.191 24.812.124 3.86 1.79 6.453 3.89 9.614 2.173 3.532 2.378 7.23 2.692 11.304l.249 3.166.251 3.342.263 3.394c.61 7.908 1.2 15.818 1.737 23.731h2l.411 1.905 1.901 8.783c.23 1.054.458 2.11.693 3.196 1.38 6.35 2.796 12.688 4.32 19.007L506 917l.497 2.255c1.48 7.292 1.76 14.252 1.682 21.677l-.013 3.769q-.016 4.023-.046 8.047c-.032 4.25-.048 8.5-.06 12.751-.034 10.552-.087 21.104-.15 31.656-.048 8.215-.09 16.43-.11 24.646a2170 2170 0 0 1-.074 12.65c-.024 3.248-.028 6.497-.035 9.747l-.042 3.493c.007 6.184.625 11.42 2.663 17.276.861 2.545 1.121 4.85 1.125 7.533l.06 2.469c-.478 2.914-1.276 4.955-2.454 7.64-2.377 5.683-2.84 11.037-3.168 17.141-.705 11.661-.705 11.661-2.875 17.25l-.5 3.5c-.482 3.376-1.331 6.305-2.5 9.5l-2.812-2.5c-3.05-2.626-6.218-4.986-9.5-7.312-4.747-3.407-9.076-7.087-13.364-11.051-2.023-1.86-4.09-3.626-6.199-5.387-9.95-8.706-18.41-19.056-26.125-29.75l-1.209-1.66c-14.174-19.674-24.84-42.066-30.967-65.52-.725-2.48-1.578-4.567-2.824-6.82h-2c-3-3.462-3-3.462-3-6h-2c-1.402-1.61-1.402-1.61-2.937-3.75l-1.528-2.11L394 986l-1.691-2.14C391 982 391 982 391 980h-2c-1.29-1.46-1.29-1.46-2.625-3.375l-1.352-1.898C384 973 384 973 384 971h-2c-2.256-2.448-4.08-5.285-6-8l-2.254-3.145q-1.187-1.676-2.371-3.355l-2.227-3.156c-1.965-3.06-3.552-6.096-5.134-9.357-1.614-3.163-3.573-6.08-5.514-9.05-8.297-12.998-15.818-26.865-21.422-41.25-1.272-3.17-2.732-6.228-4.203-9.312-2.13-4.553-3.718-8.954-5.031-13.793-1.02-3.118-2.404-5.948-3.844-8.894-2.567-5.386-3.983-10.432-5.156-16.258-.95-3.86-2.354-7.445-3.844-11.117-2.622-6.555-3.956-12.893-4.955-19.865-.812-5.522-2.242-10.537-4.13-15.8-2.604-7.541-3.148-15.11-3.634-23.027-.517-9.582-.517-9.582-3.281-18.621-3.085-18.457-3.486-37.146-3.391-55.808.017-3.383.007-6.765-.01-10.148-.195-45.256-.195-45.256 4.401-59.044q.295-2.745.5-5.5c.234-3.106.51-5.532 1.5-8.5.102-1.853.182-3.708.25-5.562.464-6.253 2.246-11.231 5.75-16.438l2-1-.84-2.082-1.098-2.73-1.09-2.708A112 112 0 0 1 305 582"/>
        <path fill="#FEFEFE" d="M805 300c20.47 18.14 20.47 18.14 25.41 25.531 2.476 3.558 5.488 5.865 9.09 8.219 18.642 12.826 35.827 29.033 48.836 47.574q1.269 1.808 2.539 3.613l1.262 1.802c3.538 4.975 7.438 9.42 11.636 13.859 2.206 2.38 4.23 4.845 6.227 7.402-1.085.182-2.17.364-3.29.55l-4.335.762-2.16.358c-4.542.812-8.11 2.13-12.215 4.33h-2v3h2l-1 6h3v7h7a2768 2768 0 0 1-2.812 4.25l-1.583 2.39A143 143 0 0 1 888 443c-3.922-1.307-4.862-3.623-6.875-7-5.443-8.796-11.744-16.872-18.125-25l-2.293-2.95c-5.373-6.831-11.059-13.402-17.207-19.55-2.388-2.388-4.627-4.855-6.875-7.375-6.194-6.897-12.518-12.996-19.75-18.812a605 605 0 0 1-8.125-6.688 311 311 0 0 0-31.496-22.574 238 238 0 0 1-5.977-3.883c-7.356-4.916-15.138-8.553-23.172-12.2a243 243 0 0 1-5.757-2.75C731.536 308.963 720.34 304.96 709 301l-4.25-1.512c-24.766-8.59-51.25-10.712-77.312-10.675l-2.412.001C612.911 288.84 601 289.19 589 291l-3.064.455a865 865 0 0 0-15.9 2.545l-2.583.438c-2.626.602-4.963 1.543-7.453 2.562-2.285.452-4.578.865-6.875 1.25-6.912 1.271-13.09 3.483-19.54 6.23-3.168 1.343-6.349 2.54-9.585 3.707-7.609 2.876-14.856 6.528-22.13 10.156-.96.47-1.918.941-2.905 1.427l-2.606 1.3C494 322 494 322 490 322l-.77-1.645-1.043-2.168-1.019-2.144c-1.208-2.113-2.26-3.534-4.168-5.043-4.654-.38-4.654-.38-9 1-1.477.095-2.958.13-4.437.125l-2.372.008C465 312 465 312 462 311c-5.333-.624-5.333-.624-9.918 1.477-2.58 1.887-4.299 1.91-7.457 2.148-3.41.532-5.111.86-7.57 3.324A69 69 0 0 0 433 325c-1.932 3.444-3.97 6.033-6.687 8.875-2.683 2.989-3.275 3.862-3.875 8 .271 3.215.271 3.215 2.562 5.125 2.323.4 4.657.74 7 1l.227 1.766c1.526 9.516 5.008 18.943 12.867 24.953 2.035 1.42 2.035 1.42 4.918 2.84 4.17 3.407 4.933 6.925 6.3 12.003l.76 2.616a376 376 0 0 1 1.359 4.8A111 111 0 0 0 460 402c.344 2.637.344 2.637.5 5.688l.219 3.011c-.924 4.24-2.91 6.09-5.834 9.196-2.984 3.332-5.153 7.094-7.447 10.918C433.48 453.519 433.48 453.519 426 461c-.572 4.077-.85 6.6 1.316 10.168 3.77 4.494 7.567 7.084 12.684 9.832 2.81 2.536 5.108 5.139 7.438 8.125 3.54 4.208 7.844 7.358 12.185 10.686 3.598 2.767 7.04 5.605 10.377 8.689 13.753 12.586 29.005 22.74 45.185 31.907 7.06 4.05 13.842 8.476 20.628 12.968 8.313 5.495 16.675 10.857 25.25 15.938l2.645 1.577A134 134 0 0 0 580 579c-4.955 1.652-9.943 1.152-15 0-2.437-2.812-2.437-2.812-4-6-3.658-3.346-7.695-5.545-12.125-7.687l-2.102-1.036c-4.55-2.23-9.132-4.392-13.72-6.542-40.15-18.833-40.15-18.833-55.053-33.735l-2.812-1.75c-2.96-2.09-4.85-4.024-7.188-6.75-4.48-5.156-8.162-8.11-14.875-9.625-6.628-1.843-9.3-6.47-13.125-11.875-7.669-9.765-15.655-18.073-25.34-25.84a169 169 0 0 1-6.723-5.785c-3.537-3.122-7.266-5.828-11.167-8.477a219 219 0 0 1-5.946-4.234c-5.723-4.183-10.79-7.266-17.746-9.027-3.508-1.075-4.918-2.697-7.078-5.637-1.474-2.886-2.865-5.805-4.258-8.73-2.414-4.53-5.43-8.452-8.594-12.48-2.2-2.857-4.18-5.771-6.148-8.79a347 347 0 0 1 13.875-18.312c3.876-4.78 7.555-9.631 11.063-14.688a194.6 194.6 0 0 1 38.347-40.723c2.917-2.446 5.554-5.055 8.215-7.777 5.202-5.283 10.607-10.003 16.5-14.5l1.77-1.362c36.543-27.836 82.361-41.322 128.143-35.712 6.602.899 12.956 1.923 19.337 3.887 13.166 3.508 25.426-1.09 37.2-6.72C681.381 240.746 756.5 257.67 805 300"/>
        <path fill="#FDFEFE" d="M969 551c5.287 9.044 9.642 18.405 13.688 28.063l1.366 3.16c8.159 19.89 9.698 39.489 9.575 60.797q0 3.96.007 7.922.006 8.24-.04 16.48c-.031 6.302-.031 12.602-.014 18.903a3434 3434 0 0 1-.008 18.405q-.008 3.868.002 7.736c.035 23.331.035 23.331-3.155 34.903-1.802 6.579-1.868 12.754-1.671 19.53l.046 3.758c.064 5.213.177 10.424.286 15.636.9 47.245-17.184 90.013-48.082 125.707l-2.102 2.438c-8.367 9.492-17.12 18.615-27.086 26.437l-1.776 1.405c-2.575 1.992-5.003 3.703-7.895 5.22-6.85 3.653-8.51 8.14-10.703 15.25l-1.665 5.61c-4.404 14.655-12.253 28.194-20.906 40.73-1.571 2.45-2.495 4.448-3.43 7.16-1.253 2.506-1.903 3.522-4.503 4.633-2.982.573-5.906.869-8.934 1.117q-3.456.33-6.91.692-2.357.241-4.72.436c-4.758.45-8.126 1.516-12.37 3.872h-2v2a90 90 0 0 1-4 4l-1.937 2c-2.239 2.17-4.63 4.053-7.063 6l-1.863 1.969c-2.2 2.091-4.11 3.201-6.824 4.531-5.364 2.823-10.256 6.122-15.188 9.625l-2.198 1.56c-2.91 2.085-5.77 4.189-8.56 6.432-2.686 2.137-5.508 3.985-8.367 5.883a593 593 0 0 0-5.562 4.25c-14.533 10.895-28.671 17.004-46.438 20.75-1.335.326-2.67.656-4 1v2l-2.668 1.426-3.52 1.887-3.48 1.863a135 135 0 0 0-6.133 3.554C696 1109 696 1109 694 1109c-.23.579-.461 1.158-.7 1.754-1.627 2.81-3.529 4.227-6.112 6.184-5.941 4.628-10.541 9.329-14.856 15.488L671 1134h-2v2h-2l-.23 1.868c-.77 2.132-.77 2.132-2.656 3.305l-2.446.932-2.67 1.041-2.81 1.042-2.776 1.076c-3.775 1.449-7.467 2.826-11.412 3.736.582-10.37 2.52-19.157 7.125-28.5 2.562-5.274 3.57-9.608 3.672-15.453L653 1103c2.645-1.323 5.062-1.487 8-1.875 18.246-2.44 18.246-2.44 36-7.125a1748 1748 0 0 1 6.952-2.198q2.547-.802 5.09-1.612c4.052-1.29 8.102-2.518 12.208-3.628 6.179-1.835 11.909-4.782 17.695-7.58 2.092-1 4.196-1.971 6.305-2.935 20.592-9.44 39.742-21.494 57.57-35.473C805 1039 805 1039 808 1038v-2c1.73-1.523 1.73-1.523 4.188-3.375 4.3-3.356 8.377-6.859 12.375-10.562l1.664-1.542c4.145-3.873 8.146-7.872 12.066-11.974C840 1007 840 1007 842 1007l.629-1.598c1.95-3.415 4.594-6.015 7.308-8.84 3.554-3.698 6.426-7.143 9.063-11.562l2.344-2.316c3.228-3.262 5.628-6.808 8.156-10.621 5.182-7.774 5.182-7.774 8.246-11.336 1.862-2.253 2.916-3.712 3.817-6.414C883 951 883 951 884.938 949.563c2.782-2.108 3.718-4.584 5.132-7.723C891 940 891 940 893 938c.722-1.694 1.442-3.39 2.144-5.092 1.897-4.227 4.618-8.03 7.114-11.92 1.437-2.465 2.296-4.211 2.742-6.988h2l1-6h2l.82-2.543c1.242-3.638 2.62-7.206 4.055-10.77l.809-2.013a325 325 0 0 1 5.246-12.291 711 711 0 0 0 4.195-9.57l1.508-3.481c1.403-3.288 1.403-3.288 2.398-6.602 1.25-3.522 3.28-5.169 5.969-7.73 4.017-5.33 5.294-10.343 6.777-16.758 1.438-3.812 2.989-4.874 6.223-7.242 1.734-2.372 1.734-2.372 3.125-4.937l1.445-2.528L954 819c2.37-4.071 4.837-7.513 8-11h2a487 487 0 0 0 .96-34.113 1769 1769 0 0 0-.174-17.876l-.044-5.609-.056-2.602c-.022-5.158.818-8.19 3.314-12.8 1.38-9.214-.794-16.868-4.437-25.25l-1.367-3.268c-5.018-11.793-10.673-23.11-17.989-33.65-2.843-4.316-4.25-8.96-5.582-13.894-1.366-4.762-3.278-7.334-6.625-10.938-2.125-3.391-2.472-6.545-2.812-10.5l-.333-3.406c.161-3.447.697-4.71 3.145-7.094h2l-.48-1.675c-.57-2.546-.73-4.922-.836-7.528l-.127-2.969-.12-3.078-.13-3.125q-.159-3.812-.307-7.625h-5c-3.497-10.492-3.497-10.492-2-15 2.355-2.857 4.876-5.314 7.617-7.8 2.525-2.158 2.525-2.158 4.383-5.2h2l.738-1.7c2.055-3.747 5.007-6.636 7.903-9.753a112 112 0 0 0 4.156-4.719c3.277-3.776 5.468-5.23 10.515-5.765 2.235-.08 4.453-.063 6.688-.063"/>
        <path fill="#93EBEC" d="M434 360c1.81 2.242 3.094 4.216 4.25 6.875 2.772 4.95 6.774 8.091 11.773 10.707 4.17 3.388 4.925 6.915 6.29 11.98.25.864.5 1.727.76 2.616a376 376 0 0 1 1.358 4.8A111 111 0 0 0 460 402c.344 2.637.344 2.637.5 5.688l.219 3.011c-.924 4.24-2.91 6.09-5.834 9.196-2.984 3.332-5.153 7.094-7.447 10.918C433.48 453.519 433.48 453.519 426 461c-.572 4.077-.85 6.6 1.316 10.168 3.77 4.494 7.567 7.084 12.684 9.832 2.81 2.536 5.108 5.139 7.438 8.125 3.54 4.208 7.844 7.358 12.185 10.686 3.598 2.767 7.04 5.605 10.377 8.689 13.753 12.586 29.005 22.74 45.185 31.907 7.06 4.05 13.842 8.476 20.628 12.968 8.313 5.495 16.675 10.857 25.25 15.938l2.645 1.577A134 134 0 0 0 580 579c-4.955 1.652-9.943 1.152-15 0-2.437-2.812-2.437-2.812-4-6-3.658-3.346-7.695-5.545-12.125-7.687l-2.102-1.036c-4.55-2.23-9.132-4.392-13.72-6.542-40.15-18.833-40.15-18.833-55.053-33.735l-2.812-1.75c-2.96-2.09-4.85-4.024-7.188-6.75-4.48-5.156-8.162-8.11-14.875-9.625-6.628-1.843-9.3-6.47-13.125-11.875-7.669-9.765-15.655-18.073-25.34-25.84a169 169 0 0 1-6.723-5.785c-3.537-3.122-7.266-5.828-11.167-8.477a219 219 0 0 1-5.946-4.234c-5.707-4.171-10.84-7.575-17.898-9.031C371 440 371 440 369 437l1.625-1.5c5.759-6.062 10.155-13.132 14.64-20.156L387 413h2l.813-2.437L391 408l3-1 .938-2.437c1.291-3.116 2.174-3.12 5.062-4.563l.813-2.125c2.789-6.753 8.82-11.534 14.285-16.16 2.365-2.132 4.307-4.49 6.324-6.945 2.395-2.686 5.102-4.967 7.844-7.29 2.838-2.422 4.004-3.83 4.734-7.48"/>
        <path fill="#FDFDFD" d="M410 1005q2.49 2.134 4.977 4.273a291 291 0 0 0 4.046 3.391l1.914 1.586 1.778 1.453C424 1017 424 1017 424 1019h2a159 159 0 0 1 5 5c22.54 22.208 49.525 39.39 78 53a764 764 0 0 1-.437 4.375l-.247 2.46C508 1086 508 1086 507 1088c-.197 1.667-.344 3.34-.465 5.016l-.236 3.043q-.235 3.167-.461 6.336c-.407 5.184-.94 9.716-2.838 14.605l-.5 3.5c-.482 3.376-1.331 6.305-2.5 9.5l-2.812-2.5c-3.05-2.626-6.218-4.986-9.5-7.312-4.747-3.407-9.076-7.087-13.364-11.051-2.023-1.86-4.09-3.626-6.199-5.387-9.95-8.706-18.41-19.056-26.125-29.75l-1.209-1.66c-14.312-19.867-26.298-43.122-30.791-67.34"/>
        <path fill="#96ECED" d="M943 566c1 3 1 3 .484 4.828-.659 2.957.009 4.997.766 7.922 1.582 6.413 2.83 12.831 4.004 19.328.52 2.731 1.084 5.41 1.715 8.113 3.925 17.489 5.346 35.66 6.781 53.496l.197 2.369c.928 11.334 1.205 22.573 1.053 33.944-2.446-3.669-4.586-7.487-6.753-11.324-1.683-2.97-3.39-5.906-5.188-8.809-3.835-6.212-6.143-11.985-8.09-19.012-1.318-3.884-3.13-5.941-5.969-8.855-2.13-3.387-2.473-6.549-2.812-10.5l-.333-3.406c.161-3.447.697-4.71 3.145-7.094h2l-.48-1.675c-.57-2.546-.73-4.922-.836-7.528l-.127-2.969-.12-3.078-.13-3.125q-.159-3.812-.307-7.625h-5c-3.497-10.492-3.497-10.492-2-15 2.355-2.857 4.876-5.314 7.617-7.8 2.525-2.158 2.525-2.158 4.383-5.2h2l.875-1.812C941 569 941 569 943 566"/>
        <path fill="#FFFFFF" d="m814.875 1397.75 2.547-.023 2.445.007 2.191.007C824 1398 824 1398 827 1400c-6.688 2.605-12.99 3.656-20.125 4.188l-2.879.248c-14.557 1.2-14.557 1.2-19.996-1.436v-1l2.309-.367 3.129-.508 3.058-.492a126 126 0 0 0 7.797-1.688c4.888-1.102 9.587-1.242 14.582-1.195"/>
        <path fill="#D4D0B5" d="m622 1354 4 1v2l4 1v2l7 1-2-3v-3c3.85.604 6.861 1.768 10.313 3.563l2.675 1.378L650 1361v1q-2.187.039-4.375.063l-2.46.035C641 1362 641 1362 639 1361v2h2c1.625 1.375 1.625 1.375 3 3v2l7 1v2l5 1v2a92.5 92.5 0 0 1-17.562-7.312l-2.235-1.198c-5.096-2.778-9.814-5.661-14.203-9.49z"/>
        <path fill="#FFFFFF" d="m371 1368 1.5.875c3.418 1.538 6.85 2.273 10.5 3.125 1.292 4.12 2.263 7.668 2 12-4.994-.476-8.146-1.76-12-5-1.755-3.748-2.242-6.886-2-11"/>
        <path fill="#DEDABD" d="M585 1405a267 267 0 0 0 7.625 1.063l2.14.275q2.618.335 5.235.662v1q-9.53.112-19.061.165-3.244.022-6.487.061c-3.105.037-6.21.054-9.315.067-.97.015-1.938.03-2.936.047h-2.73l-2.402.02c-2.56-.446-3.442-1.388-5.069-3.36q5.218-.254 10.438-.5l2.95-.145c16.754-.784 16.754-.784 19.612.645"/>
        <path fill="#FFFFFF" d="m393.063 1356 1.938 1-1 2c-1.997.598-1.997.598-4.438 1.063-3.387.651-3.387.651-6.562 1.937a95 95 0 0 1-5.125.063l-2.758-.028L373 1362c5.372-7.29 11.442-8.815 20.063-6"/>
        <path fill="#7FCACB" d="m550 563 2.5 1.469c8.986 5.23 18.158 9.97 27.5 14.531-4.955 1.652-9.943 1.152-15 0-2.437-2.812-2.437-2.812-4-6-3.85-3.636-8.247-5.783-13-8z"/>
        <path fill="#C3C3C3" d="M544 1273c3 1 3 1 4.125 2.938 2.368 8.286 2.03 17.14 2 25.687l.012 3.273c-.007 5.797-.263 11.37-1.137 17.102h-1l-.044-3.776a2573 2573 0 0 0-.218-13.894q-.051-3.004-.084-6.008c-.034-2.883-.086-5.764-.142-8.646l-.02-2.706c-.115-4.885-.532-7.897-3.492-11.97z"/>
        <path fill="#F1EDD1" d="M635 1355c3.85.604 6.861 1.768 10.313 3.563l2.675 1.378L650 1361v1c-1.936.108-3.874.186-5.812.25l-3.27.14c-2.918-.39-2.918-.39-4.805-2.218C635 1358 635 1358 635 1355"/>
        <path fill="#FFFFFF" d="M424 1357v1h-26v-1c8.968-1.877 17.27-3.581 26 0"/>
        <path fill="#888886" d="M1007 464h4q-.424 3.908-.875 7.813l-.238 2.236c-.432 3.666-.807 5.83-2.887 8.951z"/>
        <path fill="#FBFAE0" d="M859 1398v2c-2.593.864-4.34 1.176-7.012 1.316l-2.295.127-2.38.12-2.417.13q-2.947.158-5.896.307c4.918-4.918 13.496-4.206 20-4"/>
        <path fill="#82CED0" d="m940 570 1 3-1.27 1.174a593 593 0 0 0-5.668 5.389l-1.998 1.845c-4.24 4.11-5.949 6.628-6.064 12.592h-1c-.6-3.24-.843-4.872 0-8 2.34-2.88 4.87-5.309 7.617-7.8 2.525-2.158 2.525-2.158 4.383-5.2h2z"/>
        <path fill="#B8B9B7" d="m610 1289 4 1-2 3c-.37 3.102-.37 3.102-.414 6.637l-.117 3.935-.094 4.116-.117 4.15q-.142 5.08-.258 10.162h-1z"/>
        <path fill="#FFFFFF" d="m766.125 1370.938 2.875 1.063-1 3h-11c5.1-5.27 5.1-5.27 9.125-4.063"/>
        <path fill="#D4D0B5" d="M685 1389q3.094.174 6.188.375c1.148.07 2.297.14 3.48.21 3.132.39 5.485 1.096 8.332 2.415v1a712 712 0 0 1-6.187-.375c-1.15-.07-2.298-.14-3.481-.21-3.132-.39-5.485-1.096-8.332-2.415z"/>
        <path fill="#6FAEAE" d="m550 563 14 8-3 2-2-1.75c-3.477-2.607-7.076-4.42-11-6.25z"/>
        <path fill="#82CFD0" d="M542 559c3.375 1.186 5.647 2.276 8 5-3.719-.507-6.735-1.116-10-3z"/>
        <path fill="#C1BEA5" d="m645 1368 6 1v2l5 1v2q-2.188-.716-4.375-1.437l-2.46-.81C647 1371 647 1371 645 1370z"/>
        <path fill="#BBBBBA" d="M544 1273c3 1 3 1 4.188 3.25.811 2.748.975 4.904.812 7.75l-.812-1.687c-1.195-2.402-1.195-2.402-2.813-4.938C544 1275 544 1275 544 1273"/>
        <path fill="#FFFFFF" d="M694 1362h16v1h-16z"/>
        <path fill="#FFFFFF" d="M759 1402c6.625-.25 6.625-.25 10 2-6.625.25-6.625.25-10-2"/>
        <path fill="#FFFFFF" d="M805 1359h8v1h-8z"/>
        <path fill="#FFFFFF" d="m835 1402 2 1Z"/>
    </g>
</svg>
